<svg width="24" height="24" viewBox="0 0 24 24" fill="none" xmlns="http://www.w3.org/2000/svg">
<rect width="24" height="24" rx="3" fill="#131218"/>
<path fill-rule="evenodd" clip-rule="evenodd" d="M12 5.31419L14.2499 3L23 12L14.2499 21L12 18.6858L9.75007 21L1 12L9.75007 3L12 5.31419ZM12 7.31427L16.5556 12L12 16.6857L7.44439 12L12 7.31427ZM12.9723 6.31423L14.2499 5.00008L21.0555 12L14.2499 18.9999L12.9723 17.6858L18.5001 12L12.9723 6.31423ZM11.0277 17.6858L9.75007 18.9999L2.94454 12L9.75007 5.00008L11.0277 6.31423L5.49985 12L11.0277 17.6858Z" fill="#A4FFAF"/>
</svg>
